HIERARCHY
ROOT mixamorig:Hips
{
  OFFSET 0.000000 0.000000 0.000000
  CHANNELS 6 Xposition Yposition Zposition Xrotation Yrotation Zrotation
  JOINT mixamorig:Spine
  {
    OFFSET 0.888281 24.507439 -2.720481
    CHANNELS 3 Xrotation Yrotation Zrotation
    JOINT mixamorig:Spine2
    {
      OFFSET 0.888281 24.507439 -2.720481
      CHANNELS 3 Xrotation Yrotation Zrotation
      JOINT mixamorig:Neck
      {
        OFFSET 0.000000 6.350396 0.000000
        CHANNELS 3 Xrotation Yrotation Zrotation
        JOINT mixamorig:Head
        {
          OFFSET 0.000000 6.819653 0.000000
          CHANNELS 3 Xrotation Yrotation Zrotation
          End Site
          {
            OFFSET 0.000000 2.045896 0.000000
          }
        }
      }
      JOINT mixamorig:LeftShoulder
      {
        OFFSET 16.020412 2.520092 -5.380821
        CHANNELS 3 Xrotation Yrotation Zrotation
        JOINT mixamorig:LeftArm
        {
          OFFSET 10.000000 -2.000000 0.000000
          CHANNELS 3 Xrotation Yrotation Zrotation
          JOINT mixamorig:LeftForeArm
          {
            OFFSET 22.301187 0.000000 0.000000
            CHANNELS 3 Xrotation Yrotation Zrotation
            JOINT mixamorig:LeftHand
            {
              OFFSET 27.622476 0.000000 0.000000
              CHANNELS 3 Xrotation Yrotation Zrotation
              End Site
              {
                OFFSET 8.286743 0.000000 0.000000
              }
            }
          }
        }
      }
      JOINT mixamorig:RightShoulder
      {
        OFFSET -16.020412 2.520092 5.380821
        CHANNELS 3 Xrotation Yrotation Zrotation
        JOINT mixamorig:RightArm
        {
          OFFSET -10.000000 -2.000000 0.000000
          CHANNELS 3 Xrotation Yrotation Zrotation
          JOINT mixamorig:RightForeArm
          {
            OFFSET -31.190187 0.000000 0.000000
            CHANNELS 3 Xrotation Yrotation Zrotation
            JOINT mixamorig:RightHand
            {
              OFFSET -26.099761 0.000000 0.000000
              CHANNELS 3 Xrotation Yrotation Zrotation
              End Site
              {
                OFFSET -7.829928 0.000000 0.000000
              }
            }
          }
        }
      }
    }
  }
  JOINT mixamorig:LeftUpLeg
  {
    OFFSET 9.330592 -0.608966 -0.480705
    CHANNELS 3 Xrotation Yrotation Zrotation
    JOINT mixamorig:LeftLeg
    {
      OFFSET 1.429883 -38.712545 -8.162867
      CHANNELS 3 Xrotation Yrotation Zrotation
      JOINT mixamorig:LeftFoot
      {
        OFFSET 2.312643 -36.159945 16.923572
        CHANNELS 3 Xrotation Yrotation Zrotation
        JOINT mixamorig:LeftToeBase
        {
          OFFSET -4.896681 -6.214452 -6.817048
          CHANNELS 3 Xrotation Yrotation Zrotation
          End Site
          {
            OFFSET -1.469004 -1.864336 -2.045114
          }
        }
      }
    }
  }
  JOINT mixamorig:RightUpLeg
  {
    OFFSET -9.330592 0.608966 0.480705
    CHANNELS 3 Xrotation Yrotation Zrotation
    JOINT mixamorig:RightLeg
    {
      OFFSET 5.197952 -35.546916 1.847739
      CHANNELS 3 Xrotation Yrotation Zrotation
      JOINT mixamorig:RightFoot
      {
        OFFSET -1.175352 -43.737760 11.185155
        CHANNELS 3 Xrotation Yrotation Zrotation
        JOINT mixamorig:RightToeBase
        {
          OFFSET -5.934362 -2.936864 -9.381618
          CHANNELS 3 Xrotation Yrotation Zrotation
          End Site
          {
            OFFSET -1.780308 -0.881059 -2.814485
          }
        }
      }
    }
  }
}
MOTION
Frames: 12
Frame Time: 0.083333
0.125567 0.112204 0.086879 5.731969 -0.419099 -3.509744 -0.002101 0.002350 0.020480 -6.022441 8.590914 3.516070 5.040390 -1.132850 7.122437 4.858309 -1.752340 7.047247 0.000000 0.000000 0.000000 7.665098 -9.738139 -76.365035 0.086334 -0.967170 -10.374278 0.000000 0.000000 0.000000 0.000000 0.000000 0.000000 -3.413584 -4.134473 79.081531 -2.850284 -32.904416 9.633392 0.000000 0.000000 0.000000 -12.730130 -0.820742 3.712936 10.655844 -1.508730 -6.006489 0.336630 -29.590238 22.565277 0.000000 0.000000 0.000000 -3.710082 -1.203898 -7.662262 -3.685665 1.411514 4.510984 4.153202 -13.394244 1.009473 0.000000 0.000000 0.000000
0.125844 0.113278 0.087593 5.732921 -0.409086 -3.344087 -0.001901 0.002344 0.020490 -6.021722 8.610421 3.351911 5.009166 -1.309380 7.034387 4.807499 -1.916831 6.943297 0.000000 0.000000 0.000000 7.752250 -9.669887 -77.377320 0.146696 -1.718949 -9.845044 0.000000 0.000000 0.000000 0.000000 0.000000 0.000000 -3.422122 -4.162134 78.847513 -3.062204 -32.607487 10.449231 0.000000 0.000000 0.000000 -12.896574 -0.810041 3.595160 10.812580 -1.463919 -5.934050 0.647824 -29.445411 22.177720 0.000000 0.000000 0.000000 -3.722202 -1.211360 -7.717408 -3.747414 1.359076 4.316627 3.976111 -13.153420 1.071157 0.000000 0.000000 0.000000
0.126197 0.114488 0.088346 5.729269 -0.391450 -3.053041 -0.001584 0.002330 0.020470 -6.018282 8.703760 3.063799 4.920190 -1.735299 6.949461 4.667094 -2.322678 6.820643 0.000000 0.000000 0.000000 8.093152 -9.899883 -78.474304 0.218050 -2.602007 -9.503527 0.000000 0.000000 0.000000 0.000000 0.000000 0.000000 -3.438297 -4.189597 78.742579 -3.241487 -32.019931 11.268526 0.000000 0.000000 0.000000 -12.986190 -0.789671 3.375014 10.723256 -1.395291 -5.714787 0.835952 -28.784591 21.565102 0.000000 0.000000 0.000000 -3.781727 -1.234965 -7.839352 -3.901631 1.337186 4.206485 3.793169 -12.866422 1.124717 0.000000 0.000000 0.000000
0.126439 0.115916 0.089189 5.719109 -0.371911 -2.732233 -0.001272 0.002311 0.020403 -6.015841 8.769960 2.747609 4.882650 -2.141735 6.996478 4.574915 -2.726381 6.831402 0.000000 0.000000 0.000000 8.471314 -10.243415 -79.125787 0.306357 -3.511821 -9.950506 0.000000 0.000000 0.000000 0.000000 0.000000 0.000000 -3.384277 -4.110606 78.924744 -3.387087 -31.569022 11.943382 0.000000 0.000000 0.000000 -13.134060 -0.772505 3.182774 10.656699 -1.276517 -5.365258 0.946524 -28.332015 21.162248 0.000000 0.000000 0.000000 -4.010695 -1.281127 -7.803254 -3.985719 1.223773 3.797325 3.819781 -12.500591 1.012382 0.000000 0.000000 0.000000
0.126434 0.117380 0.090115 5.692934 -0.354563 -2.452692 -0.001058 0.002283 0.020221 -6.014018 8.819379 2.474968 4.959714 -2.399170 7.048819 4.614690 -2.996342 6.857921 0.000000 0.000000 0.000000 8.727990 -10.433161 -79.781406 0.378642 -4.087178 -10.490309 0.000000 0.000000 0.000000 0.000000 0.000000 0.000000 -3.291101 -3.976350 79.223115 -3.512394 -31.485869 12.414795 0.000000 0.000000 0.000000 -13.297504 -0.773372 3.178985 10.405750 -1.187260 -5.041508 1.242426 -28.161533 20.774538 0.000000 0.000000 0.000000 -4.665577 -1.397381 -7.532693 -3.608465 0.999478 3.104687 3.900686 -11.879333 0.797343 0.000000 0.000000 0.000000
0.126128 0.118748 0.090916 5.646731 -0.331790 -2.092439 -0.000806 0.002238 0.019899 -6.013116 8.843788 2.125932 5.095439 -2.445112 7.038134 4.743443 -3.058145 6.838645 0.000000 0.000000 0.000000 8.920048 -10.642536 -79.887044 0.502656 -4.783227 -11.845450 0.000000 0.000000 0.000000 0.000000 0.000000 0.000000 -3.261185 -3.907511 79.693457 -3.562464 -31.620889 12.534753 0.000000 0.000000 0.000000 -13.745054 -0.778643 3.204494 9.734670 -1.273075 -5.072080 1.351550 -28.522178 20.913274 0.000000 0.000000 0.000000 -5.899560 -1.636246 -7.275954 -3.131090 0.774783 2.417588 4.332598 -10.812678 0.228367 0.000000 0.000000 0.000000
0.125667 0.120213 0.091572 5.578262 -0.308735 -1.738037 -0.000601 0.002178 0.019422 -6.012342 8.864754 1.785908 5.208871 -2.360386 6.971908 4.870470 -2.982415 6.776976 0.000000 0.000000 0.000000 9.179398 -10.956695 -79.859935 0.660685 -5.669366 -13.265225 0.000000 0.000000 0.000000 0.000000 0.000000 0.000000 -3.283362 -3.897217 80.206532 -3.587310 -31.779727 12.557864 0.000000 0.000000 0.000000 -14.439126 -0.797864 3.374753 9.128750 -1.411647 -5.265515 1.247301 -28.638597 21.086941 0.000000 0.000000 0.000000 -7.332361 -1.912186 -7.034364 -2.919354 0.627443 1.931377 5.087910 -9.526996 -0.613377 0.000000 0.000000 0.000000
0.125157 0.122138 0.092032 5.544181 -0.289949 -1.446889 -0.000414 0.002145 0.019188 -6.020564 8.641827 1.503668 5.337399 -2.198502 6.915241 5.022103 -2.832356 6.732230 0.000000 0.000000 0.000000 9.036034 -10.807755 -79.745415 0.727224 -5.899052 -14.041450 0.000000 0.000000 0.000000 0.000000 0.000000 0.000000 -3.543078 -4.168761 80.700818 -3.540700 -32.314492 12.183307 0.000000 0.000000 0.000000 -15.221176 -0.811541 3.497212 9.581220 -1.372323 -5.295996 1.703334 -28.906878 20.844533 0.000000 0.000000 0.000000 -8.516480 -2.100863 -6.547533 -2.421261 0.422699 1.280319 5.747520 -8.940885 -1.205218 0.000000 0.000000 0.000000
0.124653 0.124144 0.092453 5.515285 -0.274822 -1.215012 -0.000284 0.002118 0.018990 -6.026239 8.487810 1.278616 5.437065 -2.114208 6.913177 5.132024 -2.760539 6.735894 0.000000 0.000000 0.000000 8.788618 -10.512174 -79.746069 0.749872 -5.933582 -14.392833 0.000000 0.000000 0.000000 0.000000 0.000000 0.000000 -3.797996 -4.430375 81.196470 -3.472767 -32.890727 11.728423 0.000000 0.000000 0.000000 -15.707158 -0.830046 3.724399 9.880910 -1.329735 -5.272369 2.526963 -28.648729 19.916248 0.000000 0.000000 0.000000 -9.073214 -2.157400 -6.107341 -2.062470 0.277355 0.804364 6.213234 -9.132541 -1.466912 0.000000 0.000000 0.000000
0.124116 0.126144 0.092815 5.499655 -0.261345 -1.005679 -0.000177 0.002103 0.018884 -6.029122 8.409513 1.073633 5.536262 -2.072476 6.950875 5.233990 -2.734625 6.775390 0.000000 0.000000 0.000000 8.600732 -10.289262 -79.738338 0.743363 -5.915599 -14.312685 0.000000 0.000000 0.000000 0.000000 0.000000 0.000000 -3.938863 -4.558823 81.644249 -3.435176 -33.144052 11.508390 0.000000 0.000000 0.000000 -15.986714 -0.847131 3.959951 9.949576 -1.358318 -5.370654 2.908908 -28.598613 19.535760 0.000000 0.000000 0.000000 -9.398362 -2.180881 -5.796312 -1.775662 0.174821 0.465753 6.423715 -9.512522 -1.512326 0.000000 0.000000 0.000000
0.123635 0.128185 0.093113 5.494258 -0.247370 -0.784812 -0.000082 0.002095 0.018848 -6.027809 8.445178 0.855736 5.585965 -2.052396 7.010077 5.283062 -2.726201 6.835592 0.000000 0.000000 0.000000 8.553680 -10.229293 -79.759229 0.736317 -5.958019 -14.080667 0.000000 0.000000 0.000000 0.000000 0.000000 0.000000 -4.020671 -4.619281 82.062368 -3.435618 -33.304978 11.451369 0.000000 0.000000 0.000000 -16.178865 -0.851294 4.018815 9.913874 -1.375996 -5.407771 3.481071 -28.281329 18.807529 0.000000 0.000000 0.000000 -9.518140 -2.173562 -5.570598 -1.706717 0.081744 0.130961 6.615684 -10.158856 -1.479588 0.000000 0.000000 0.000000
0.123213 0.130353 0.093344 5.484887 -0.231911 -0.542632 -0.000002 0.002085 0.018785 -6.026076 8.492241 0.617377 5.593888 -2.092111 7.080842 5.282075 -2.773262 6.902227 0.000000 0.000000 0.000000 8.529373 -10.199108 -79.765741 0.734044 -6.081115 -13.755811 0.000000 0.000000 0.000000 0.000000 0.000000 0.000000 -4.103432 -4.686466 82.403118 -3.437976 -33.358432 11.439876 0.000000 0.000000 0.000000 -16.303560 -0.846100 3.939533 9.938739 -1.372645 -5.406480 3.490837 -27.337995 18.178092 0.000000 0.000000 0.000000 -9.571948 -2.186737 -5.588087 -1.583882 0.036786 -0.021935 6.584977 -10.499558 -1.374846 0.000000 0.000000 0.000000
